<svg version="1.1" id="Layer_1" xmlns="http://www.w3.org/2000/svg" xmlns:xlink="http://www.w3.org/1999/xlink" x="0px" y="0px"
	 width="100%" viewBox="0 0 294 285" enable-background="new 0 0 294 285" xml:space="preserve">
<path fill="#000000" opacity="1.000000" stroke="none" 
	d="
M1.000004,283.000000 
	C1.000000,189.048172 1.000000,95.096336 1.000000,1.072251 
	C98.901566,1.072251 196.803192,1.072251 294.852417,1.072251 
	C294.852417,95.999817 294.852417,190.999893 294.852417,286.000000 
	C290.610382,286.000000 286.279297,286.000000 281.151367,285.658997 
	C281.841797,282.717346 281.324707,281.353973 278.178955,280.558960 
	C271.683807,278.917450 265.344604,276.654175 258.842804,275.044250 
	C244.339050,271.453033 229.740540,268.243439 215.242676,264.629517 
	C188.350128,257.925964 161.493774,251.076416 134.640259,244.217575 
	C126.446014,242.124634 118.333069,239.713608 110.140160,237.615143 
	C104.449898,236.157700 98.686562,234.985565 92.871841,233.666916 
	C93.045845,232.597153 92.983421,231.860382 93.280426,231.321838 
	C98.258224,222.295898 103.305084,213.308075 108.285599,204.283630 
	C111.934975,197.671112 115.446716,190.982162 119.132736,184.390442 
	C125.611755,172.804016 132.284210,161.324692 138.673447,149.689453 
	C144.019913,139.953171 149.040741,130.038483 154.298462,120.252625 
	C155.202408,118.570175 156.570450,117.137100 157.912506,115.335991 
	C170.754196,139.088562 183.080627,161.888077 195.625732,185.092056 
	C215.112656,185.819336 234.956024,186.559906 254.720505,187.297531 
	C251.934662,182.404922 249.386566,178.085281 246.986176,173.685059 
	C239.739700,160.401428 232.567368,147.077377 225.333786,133.786713 
	C219.585556,123.225174 213.753021,112.709442 208.023514,102.137840 
	C198.989273,85.468681 189.989624,68.780693 181.014999,52.079361 
	C175.311111,41.464703 169.718948,30.789938 163.998215,20.184450 
	C161.049759,14.718362 157.929855,9.344750 154.373276,3.014191 
	C151.714111,8.358660 149.651733,12.838278 147.304092,17.163050 
	C138.091049,34.135044 128.788437,51.058418 119.518387,67.999458 
	C113.466202,79.059883 107.460938,90.146317 101.347336,101.172684 
	C94.249329,113.974525 87.039932,126.714554 79.909630,139.498550 
	C75.590202,147.242874 71.235443,154.969803 67.063164,162.793396 
	C60.463726,175.168243 54.104393,187.671600 47.459454,200.021591 
	C39.475559,214.860092 31.339775,229.617493 23.186527,244.363968 
	C19.677771,250.710129 15.831173,256.870850 12.373965,263.243774 
	C9.100908,269.277252 6.168020,275.494659 2.990445,281.581512 
	C2.654376,282.225281 1.678867,282.535217 1.000004,283.000000 
z"/>
<path fill="#FFFFFF" opacity="1.000000" stroke="none" 
	d="
M1.000004,283.500000 
	C1.678867,282.535217 2.654376,282.225281 2.990445,281.581512 
	C6.168020,275.494659 9.100908,269.277252 12.373965,263.243774 
	C15.831173,256.870850 19.677771,250.710129 23.186527,244.363968 
	C31.339775,229.617493 39.475559,214.860092 47.459454,200.021591 
	C54.104393,187.671600 60.463726,175.168243 67.063164,162.793396 
	C71.235443,154.969803 75.590202,147.242874 79.909630,139.498550 
	C87.039932,126.714554 94.249329,113.974525 101.347336,101.172684 
	C107.460938,90.146317 113.466202,79.059883 119.518387,67.999458 
	C128.788437,51.058418 138.091049,34.135044 147.304092,17.163050 
	C149.651733,12.838278 151.714111,8.358660 154.373276,3.014191 
	C157.929855,9.344750 161.049759,14.718362 163.998215,20.184450 
	C169.718948,30.789938 175.311111,41.464703 181.014999,52.079361 
	C189.989624,68.780693 198.989273,85.468681 208.023514,102.137840 
	C213.753021,112.709442 219.585556,123.225174 225.333786,133.786713 
	C232.567368,147.077377 239.739700,160.401428 246.986176,173.685059 
	C249.386566,178.085281 251.934662,182.404922 254.720505,187.297531 
	C234.956024,186.559906 215.112656,185.819336 195.625732,185.092056 
	C183.080627,161.888077 170.754196,139.088562 157.912506,115.335991 
	C156.570450,117.137100 155.202408,118.570175 154.298462,120.252625 
	C149.040741,130.038483 144.019913,139.953171 138.673447,149.689453 
	C132.284210,161.324692 125.611755,172.804016 119.132736,184.390442 
	C115.446716,190.982162 111.934975,197.671112 108.285599,204.283630 
	C103.305084,213.308075 98.258224,222.295898 93.280426,231.321838 
	C92.983421,231.860382 93.045845,232.597153 92.871841,233.666916 
	C98.686562,234.985565 104.449898,236.157700 110.140160,237.615143 
	C118.333069,239.713608 126.446014,242.124634 134.640259,244.217575 
	C161.493774,251.076416 188.350128,257.925964 215.242676,264.629517 
	C229.740540,268.243439 244.339050,271.453033 258.842804,275.044250 
	C265.344604,276.654175 271.683807,278.917450 278.178955,280.558960 
	C281.324707,281.353973 281.841797,282.717346 280.677246,285.658997 
	C188.996445,286.000000 96.992867,286.009705 4.989450,285.898682 
	C3.732358,285.897186 0.687513,287.942444 1.000004,283.500000 
z"/>
</svg>